<svg width="16" height="16" viewBox="0 0 16 16" fill="none" xmlns="http://www.w3.org/2000/svg">
<path d="M6.66667 8.00085H3.33333C2.97971 8.00085 2.64057 7.86038 2.39052 7.61033C2.14048 7.36028 2 7.02114 2 6.66752V3.33419C2 2.98057 2.14048 2.64143 2.39052 2.39138C2.64057 2.14133 2.97971 2.00085 3.33333 2.00085H6.66667C7.02029 2.00085 7.35943 2.14133 7.60948 2.39138C7.85952 2.64143 8 2.98057 8 3.33419V6.66752C8 7.02114 7.85952 7.36028 7.60948 7.61033C7.35943 7.86038 7.02029 8.00085 6.66667 8.00085Z" stroke="#637592" stroke-width="1.25" stroke-linecap="round" stroke-linejoin="round"/>
<path d="M12.3333 13.3342H10.3333C10.0681 13.3342 9.81377 13.2289 9.62624 13.0413C9.4387 12.8538 9.33334 12.5994 9.33334 12.3342V10.3342C9.33334 10.069 9.4387 9.81466 9.62624 9.62712C9.81377 9.43959 10.0681 9.33423 10.3333 9.33423H12.3333C12.5986 9.33423 12.8529 9.43959 13.0404 9.62712C13.228 9.81466 13.3333 10.069 13.3333 10.3342V12.3342C13.3333 12.5994 13.228 12.8538 13.0404 13.0413C12.8529 13.2289 12.5986 13.3342 12.3333 13.3342Z" stroke="#637592" stroke-width="1.25" stroke-linecap="round" stroke-linejoin="round"/>
<path d="M13 7.33423H11C10.7348 7.33423 10.4804 7.22887 10.2929 7.04134C10.1054 6.8538 10 6.59945 10 6.33423V4.33423C10 4.06901 10.1054 3.81466 10.2929 3.62712C10.4804 3.43959 10.7348 3.33423 11 3.33423H13C13.2652 3.33423 13.5196 3.43959 13.7071 3.62712C13.8946 3.81466 14 4.06901 14 4.33423V6.33423C14 6.59945 13.8946 6.8538 13.7071 7.04134C13.5196 7.22887 13.2652 7.33423 13 7.33423Z" stroke="#637592" stroke-width="1.25" stroke-linecap="round" stroke-linejoin="round"/>
<path d="M6.33334 14.0009H4.33334C4.06813 14.0009 3.81377 13.8955 3.62624 13.708C3.4387 13.5204 3.33334 13.2661 3.33334 13.0009V11.0009C3.33334 10.7356 3.4387 10.4813 3.62624 10.2937C3.81377 10.1062 4.06813 10.0009 4.33334 10.0009H6.33334C6.59856 10.0009 6.85291 10.1062 7.04045 10.2937C7.22799 10.4813 7.33334 10.7356 7.33334 11.0009V13.0009C7.33334 13.2661 7.22799 13.5204 7.04045 13.708C6.85291 13.8955 6.59856 14.0009 6.33334 14.0009Z" stroke="#637592" stroke-width="1.25" stroke-linecap="round" stroke-linejoin="round"/>
</svg>
