<svg width="40" height="40" viewBox="0 0 40 40" fill="none" xmlns="http://www.w3.org/2000/svg">
<path d="M21.5346 28H18.4679" stroke="white" stroke-width="1.5" stroke-linecap="round" stroke-linejoin="round"/>
<path d="M24.7929 18.032V18C24.7929 16.6739 24.2881 15.4021 23.3895 14.4645C22.4908 13.5268 21.2721 13 20.0012 13C18.7304 13 17.5116 13.5268 16.613 14.4645C15.7144 15.4021 15.2096 16.6739 15.2096 18V20.504C15.2095 20.6626 15.1672 20.818 15.0873 20.953C15.0074 21.0879 14.8931 21.197 14.7572 21.268L14.2752 21.519C13.9168 21.7056 13.6294 22.013 13.4595 22.3914C13.2895 22.7698 13.2471 23.1971 13.3391 23.6038C13.4311 24.0105 13.6521 24.3729 13.9662 24.6322C14.2803 24.8914 14.6692 25.0323 15.0697 25.032H24.9328C25.1726 25.1572 25.4364 25.2241 25.7044 25.2278C25.9725 25.2315 26.2379 25.1719 26.4807 25.0534C26.7235 24.9348 26.9375 24.7605 27.1066 24.5434C27.2757 24.3264 27.3956 24.0722 27.4572 23.7999C27.5187 23.5277 27.5205 23.2444 27.4623 22.9713C27.404 22.6983 27.2873 22.4425 27.1209 22.2232C26.9545 22.0038 26.7427 21.8267 26.5014 21.7049C26.26 21.5831 25.9954 21.5199 25.7273 21.52L25.2452 21.269C25.1094 21.1977 24.9951 21.0884 24.9152 20.9533C24.8354 20.8183 24.793 20.6627 24.7929 20.504V18.032V18.032Z" stroke="white" stroke-width="1.5" stroke-linecap="round" stroke-linejoin="round"/>
</svg>
