<svg width="40" height="40" viewBox="0 0 40 40" fill="none" xmlns="http://www.w3.org/2000/svg">
<g clip-path="url(#clip0_7401_6929)">
<path d="M20 30C25.2927 30 29.5833 25.5228 29.5833 20C29.5833 14.4772 25.2927 10 20 10C14.7072 10 10.4166 14.4772 10.4166 20C10.4166 25.5228 14.7072 30 20 30Z" fill="#F0F0F0"/>
<path d="M12.3976 13.9118C11.6448 14.9338 11.0772 16.1117 10.7467 17.3914H15.7322L12.3976 13.9118Z" fill="#0052B4"/>
<path d="M29.2531 17.3914C28.9226 16.1118 28.355 14.9338 27.6022 13.9118L24.2677 17.3914H29.2531Z" fill="#0052B4"/>
<path d="M10.7467 22.6087C11.0773 23.8884 11.6449 25.0663 12.3976 26.0882L15.7321 22.6087H10.7467Z" fill="#0052B4"/>
<path d="M25.8344 12.0672C24.855 11.2817 23.7262 10.6894 22.4999 10.3445V15.5467L25.8344 12.0672Z" fill="#0052B4"/>
<path d="M14.1654 27.9328C15.1448 28.7183 16.2737 29.3106 17.5 29.6555V24.4533L14.1654 27.9328Z" fill="#0052B4"/>
<path d="M17.4999 10.3445C16.2736 10.6894 15.1448 11.2817 14.1654 12.0672L17.4999 15.5467V10.3445Z" fill="#0052B4"/>
<path d="M22.4999 29.6555C23.7262 29.3106 24.855 28.7183 25.8344 27.9328L22.4999 24.4533V29.6555Z" fill="#0052B4"/>
<path d="M24.2677 22.6087L27.6022 26.0883C28.355 25.0663 28.9226 23.8884 29.2531 22.6087H24.2677Z" fill="#0052B4"/>
<path d="M29.5022 18.6957H21.25H21.25V10.0846C20.8408 10.0291 20.4236 10 20 10C19.5762 10 19.1591 10.0291 18.75 10.0846V18.6956V18.6956H10.4977C10.4445 19.1226 10.4166 19.5579 10.4166 20C10.4166 20.4421 10.4445 20.8774 10.4977 21.3043H18.7499H18.7499V29.9154C19.1591 29.9709 19.5762 30 20 30C20.4236 30 20.8408 29.971 21.2499 29.9154V21.3044V21.3044H29.5022C29.5554 20.8774 29.5833 20.4421 29.5833 20C29.5833 19.5579 29.5554 19.1226 29.5022 18.6957Z" fill="#D80027"/>
<path d="M22.5 22.6088L26.7764 27.0711C26.9731 26.8659 27.1607 26.6514 27.3397 26.4291L23.6785 22.6087H22.5V22.6088Z" fill="#D80027"/>
<path d="M17.5 22.6087H17.4999L13.2235 27.0711C13.4201 27.2763 13.6257 27.4721 13.8388 27.6589L17.5 23.8384V22.6087Z" fill="#D80027"/>
<path d="M17.4999 17.3914V17.3913L13.2235 12.9289C13.0268 13.1341 12.8392 13.3486 12.6602 13.5709L16.3214 17.3913H17.4999V17.3914Z" fill="#D80027"/>
<path d="M22.5 17.3914L26.7765 12.9289C26.5798 12.7237 26.3743 12.5279 26.1612 12.3412L22.5 16.1616V17.3914Z" fill="#D80027"/>
</g>
<defs>
<clipPath id="clip0_7401_6929">
<rect width="19.1667" height="20" fill="white" transform="translate(10.4166 10)"/>
</clipPath>
</defs>
</svg>
