<svg width="28" height="32" viewBox="0 0 28 32" fill="none" xmlns="http://www.w3.org/2000/svg">
<g clip-path="url(#clip0_7401_6800)">
<path d="M13.9595 3.99869V8.00087L17.4511 6.00152V1.99935L13.9595 3.99869Z" fill="#2129DB"/>
<path d="M13.9595 3.99869L17.4511 1.99935L13.9595 0L10.4714 1.99935L13.9595 3.99869Z" fill="#00FFBB"/>
<path d="M10.4714 6.00152V1.99935L13.9595 3.99869V8.00087L10.4714 6.00152Z" fill="#0A1393"/>
<path d="M10.4714 6.00152V10.0002L13.9595 8.00087V3.99869L10.4714 6.00152Z" fill="#2129DB"/>
<path d="M10.4714 6.00152L13.9595 3.99869L10.4714 1.99935L6.97975 3.99869L10.4714 6.00152Z" fill="#00FFBB"/>
<path d="M6.97975 8.00087V3.99869L10.4714 6.00152V10.0002L6.97975 8.00087Z" fill="#0A1393"/>
<path d="M17.4511 6.00152V10.0002L20.9393 8.00087V3.99869L17.4511 6.00152Z" fill="#2129DB"/>
<path d="M17.4511 6.00152L20.9393 3.99869L17.4511 1.99935L13.9595 3.99869L17.4511 6.00152Z" fill="#2F37FF"/>
<path d="M13.9595 8.00087V3.99869L17.4511 6.00152V10.0002L13.9595 8.00087Z" fill="#0A1393"/>
<path d="M3.49163 21.9998V26.002L6.97975 24.0026V20.0004L3.49163 21.9998Z" fill="#006B7A"/>
<path d="M3.49163 21.9998L6.97975 20.0004L3.49163 18.0011L0 20.0004L3.49163 21.9998Z" fill="#2F37FF"/>
<path d="M0 24.0026V20.0004L3.49163 21.9998V26.002L0 24.0026Z" fill="#00A57E"/>
<path d="M3.49163 18.0011V21.9998L6.97975 20.0004V16.0017L3.49163 18.0011Z" fill="#006B7A"/>
<path d="M3.49163 18.0011L6.97975 16.0017L3.49163 14.0024L0 16.0017L3.49163 18.0011Z" fill="#2F37FF"/>
<path d="M0 20.0004V16.0017L3.49163 18.0011V21.9998L0 20.0004Z" fill="#00A57E"/>
<path d="M3.49163 14.0024V18.0011L6.97975 16.0017V11.9996L3.49163 14.0024Z" fill="#2129DB"/>
<path d="M3.49163 14.0024L6.97975 11.9996L3.49163 10.0002L0 11.9996L3.49163 14.0024Z" fill="#2F37FF"/>
<path d="M0 16.0017V11.9996L3.49163 14.0024V18.0011L0 16.0017Z" fill="#00A57E"/>
<path d="M17.4511 26.002V30.0007L20.9393 28.0013V24.0026L17.4511 26.002Z" fill="#2129DB"/>
<path d="M17.4511 26.002L20.9393 24.0026L17.4511 21.9998L13.9595 24.0026L17.4511 26.002Z" fill="#2F37FF"/>
<path d="M13.9595 28.0013V24.0026L17.4511 26.002V30.0007L13.9595 28.0013Z" fill="#0A1393"/>
<path d="M13.9595 24.0026V28.0013L17.4511 26.002V21.9998L13.9595 24.0026Z" fill="#2129DB"/>
<path d="M13.9595 24.0026L17.4511 21.9998L13.9595 20.0004L10.4714 21.9998L13.9595 24.0026Z" fill="#2F37FF"/>
<path d="M10.4714 26.002V21.9998L13.9595 24.0026V28.0013L10.4714 26.002Z" fill="#0A1393"/>
<path d="M17.4511 14.0024V18.0011L20.9393 16.0017V11.9996L17.4511 14.0024Z" fill="#2129DB"/>
<path d="M17.4511 14.0024L20.9393 11.9996L17.4511 10.0002L13.9595 11.9996L17.4511 14.0024Z" fill="#2F37FF"/>
<path d="M13.9595 16.0017V11.9996L17.4511 14.0024V18.0011L13.9595 16.0017Z" fill="#0A1393"/>
<path d="M6.97975 16.0017V20.0004L10.4714 18.0011V14.0024L6.97975 16.0017Z" fill="#2129DB"/>
<path d="M6.97975 16.0017L10.4714 14.0024L6.97975 11.9996L3.49163 14.0024L6.97975 16.0017Z" fill="#2F37FF"/>
<path d="M3.49163 18.0011V14.0024L6.97975 16.0017V20.0004L3.49163 18.0011Z" fill="#00A57E"/>
<path d="M10.4714 26.002V30.0007L13.9595 28.0013V24.0026L10.4714 26.002Z" fill="#2129DB"/>
<path d="M10.4714 26.002L13.9595 24.0026L10.4714 21.9998L6.97975 24.0026L10.4714 26.002Z" fill="#2F37FF"/>
<path d="M6.97975 28.0013V24.0026L10.4714 26.002V30.0007L6.97975 28.0013Z" fill="#00A57E"/>
<path d="M10.4714 21.9998V26.002L13.9595 24.0026V20.0004L10.4714 21.9998Z" fill="#2129DB"/>
<path d="M10.4714 21.9998L13.9595 20.0004L10.4714 18.0011L6.97975 20.0004L10.4714 21.9998Z" fill="#2F37FF"/>
<path d="M6.97975 24.0026V20.0004L10.4714 21.9998V26.002L6.97975 24.0026Z" fill="#00A57E"/>
<path d="M10.4714 18.0011V21.9998L13.9595 20.0004V16.0017L10.4714 18.0011Z" fill="#2129DB"/>
<path d="M10.4714 18.0011L13.9595 16.0017L10.4714 14.0024L6.97975 16.0017L10.4714 18.0011Z" fill="#2F37FF"/>
<path d="M6.97975 20.0004V16.0017L10.4714 18.0011V21.9998L6.97975 20.0004Z" fill="#00A57E"/>
<path d="M6.97975 8.00087V11.9996L10.4714 10.0002V6.00152L6.97975 8.00087Z" fill="#006B7A"/>
<path d="M6.97975 8.00087L10.4714 6.00152L6.97975 3.99869L3.49163 6.00152L6.97975 8.00087Z" fill="#00FFBB"/>
<path d="M3.49163 10.0002V6.00152L6.97975 8.00087V11.9996L3.49163 10.0002Z" fill="#0A1393"/>
<path d="M13.9595 8.00087V11.9996L17.4511 10.0002V6.00152L13.9595 8.00087Z" fill="#2129DB"/>
<path d="M13.9595 8.00087L17.4511 6.00152L13.9595 3.99869L10.4714 6.00152L13.9595 8.00087Z" fill="#00FFBB"/>
<path d="M10.4714 10.0002V6.00152L13.9595 8.00087V11.9996L10.4714 10.0002Z" fill="#00A57E"/>
<path d="M20.9393 8.00087V11.9996L24.4309 10.0002V6.00152L20.9393 8.00087Z" fill="#2129DB"/>
<path d="M20.9393 8.00087L24.4309 6.00152L20.9393 3.99869L17.4511 6.00152L20.9393 8.00087Z" fill="#2F37FF"/>
<path d="M17.4511 10.0002V6.00152L20.9393 8.00087V11.9996L17.4511 10.0002Z" fill="#0A1393"/>
<path d="M17.4511 10.0002V14.0024L20.9393 11.9996V8.00087L17.4511 10.0002Z" fill="#2129DB"/>
<path d="M17.4511 10.0002L20.9393 8.00087L17.4511 6.00152L13.9595 8.00087L17.4511 10.0002Z" fill="#2F37FF"/>
<path d="M13.9595 11.9996V8.00087L17.4511 10.0002V14.0024L13.9595 11.9996Z" fill="#0A1393"/>
<path d="M3.49163 10.0002V14.0024L6.97975 11.9996V8.00087L3.49163 10.0002Z" fill="#2129DB"/>
<path d="M3.49163 10.0002L6.97975 8.00087L3.49163 6.00152L0 8.00087L3.49163 10.0002Z" fill="#2F37FF"/>
<path d="M0 11.9996V8.00087L3.49163 10.0002V14.0024L0 11.9996Z" fill="#0A1393"/>
<path d="M6.97975 11.9996V16.0017L10.4714 14.0024V10.0002L6.97975 11.9996Z" fill="#2129DB"/>
<path d="M6.97975 11.9996L10.4714 10.0002L6.97975 8.00087L3.49163 10.0002L6.97975 11.9996Z" fill="#2F37FF"/>
<path d="M3.49163 14.0024V10.0002L6.97975 11.9996V16.0017L3.49163 14.0024Z" fill="#0A1393"/>
<path d="M13.9595 11.9996V16.0017L17.4511 14.0024V10.0002L13.9595 11.9996Z" fill="#2129DB"/>
<path d="M13.9595 11.9996L17.4511 10.0002L13.9595 8.00087L10.4714 10.0002L13.9595 11.9996Z" fill="#2F37FF"/>
<path d="M10.4714 14.0024V10.0002L13.9595 11.9996V16.0017L10.4714 14.0024Z" fill="#0A1393"/>
<path d="M10.4714 14.0024V18.0011L13.9595 16.0017V11.9996L10.4714 14.0024Z" fill="#2129DB"/>
<path d="M10.4714 14.0024L13.9595 11.9996L10.4714 10.0002L6.97975 11.9996L10.4714 14.0024Z" fill="#2F37FF"/>
<path d="M6.97975 16.0017V11.9996L10.4714 14.0024V18.0011L6.97975 16.0017Z" fill="#0A1393"/>
<path d="M24.4309 18.0011V21.9998L27.9225 20.0004V16.0017L24.4309 18.0011Z" fill="#2129DB"/>
<path d="M24.4309 18.0011L27.9225 16.0017L24.4309 14.0024L20.9393 16.0017L24.4309 18.0011Z" fill="#2F37FF"/>
<path d="M20.9393 20.0004V16.0017L24.4309 18.0011V21.9998L20.9393 20.0004Z" fill="#0A1393"/>
<path d="M24.4309 14.0024V18.0011L27.9225 16.0017V11.9996L24.4309 14.0024Z" fill="#2129DB"/>
<path d="M24.4309 14.0024L27.9225 11.9996L24.4309 10.0002L20.9393 11.9996L24.4309 14.0024Z" fill="#2F37FF"/>
<path d="M20.9393 16.0017V11.9996L24.4309 14.0024V18.0011L20.9393 16.0017Z" fill="#0A1393"/>
<path d="M24.4309 10.0002V14.0024L27.9225 11.9996V8.00087L24.4309 10.0002Z" fill="url(#paint0_linear_7401_6800)"/>
<path d="M24.4309 10.0002L27.9225 8.00087L24.4309 6.00152L20.9393 8.00087L24.4309 10.0002Z" fill="#00FFBB"/>
<path d="M20.9393 11.9996V8.00087L24.4309 10.0002V14.0024L20.9393 11.9996Z" fill="#0A1393"/>
<path d="M20.9393 24.0026V28.0013L24.4309 26.002V21.9998L20.9393 24.0026Z" fill="#2129DB"/>
<path d="M20.9393 24.0026L24.4309 21.9998L20.9393 20.0004L17.4511 21.9998L20.9393 24.0026Z" fill="#2F37FF"/>
<path d="M17.4511 26.002V21.9998L20.9393 24.0026V28.0013L17.4511 26.002Z" fill="#0A1393"/>
<path d="M20.9393 20.0004V24.0026L24.4309 21.9998V18.0011L20.9393 20.0004Z" fill="url(#paint1_linear_7401_6800)"/>
<path d="M20.9393 20.0004L24.4309 18.0011L20.9393 16.0017L17.4511 18.0011L20.9393 20.0004Z" fill="#006B7A"/>
<path d="M17.4511 21.9998V18.0011L20.9393 20.0004V24.0026L17.4511 21.9998Z" fill="#0A1393"/>
<path d="M20.9393 11.9996V16.0017L24.4309 14.0024V10.0002L20.9393 11.9996Z" fill="url(#paint2_linear_7401_6800)"/>
<path d="M20.9393 11.9996L24.4309 10.0002L20.9393 8.00087L17.4511 10.0002L20.9393 11.9996Z" fill="#00FFBB"/>
<path d="M17.4511 14.0024V10.0002L20.9393 11.9996V16.0017L17.4511 14.0024Z" fill="#0A1393"/>
<path d="M17.4511 26.002V30.0007L20.9393 28.0013V24.0026L17.4511 26.002Z" fill="url(#paint3_linear_7401_6800)"/>
<path d="M17.4511 26.002L20.9393 24.0026L17.4511 21.9998L13.9595 24.0026L17.4511 26.002Z" fill="#2F37FF"/>
<path d="M13.9595 28.0013V24.0026L17.4511 26.002V30.0007L13.9595 28.0013Z" fill="#0A1393"/>
<path d="M17.4511 21.9998V26.002L20.9393 24.0026V20.0004L17.4511 21.9998Z" fill="url(#paint4_linear_7401_6800)"/>
<path d="M17.4511 21.9998L20.9393 20.0004L17.4511 18.0011L13.9595 20.0004L17.4511 21.9998Z" fill="#2F37FF"/>
<path d="M13.9595 24.0026V20.0004L17.4511 21.9998V26.002L13.9595 24.0026Z" fill="#0A1393"/>
<path d="M17.4511 18.0011V21.9998L20.9393 20.0004V16.0017L17.4511 18.0011Z" fill="url(#paint5_linear_7401_6800)"/>
<path d="M17.4511 18.0011L20.9393 16.0017L17.4511 14.0024L13.9595 16.0017L17.4511 18.0011Z" fill="#2F37FF"/>
<path d="M13.9595 20.0004V16.0017L17.4511 18.0011V21.9998L13.9595 20.0004Z" fill="#00A57E"/>
<path d="M17.4511 14.0024V18.0011L20.9393 16.0017V11.9996L17.4511 14.0024Z" fill="url(#paint6_linear_7401_6800)"/>
<path d="M17.4511 14.0024L20.9393 11.9996L17.4511 10.0002L13.9595 11.9996L17.4511 14.0024Z" fill="#00FFBB"/>
<path d="M13.9595 16.0017V11.9996L17.4511 14.0024V18.0011L13.9595 16.0017Z" fill="#00A57E"/>
<path d="M13.9595 28.0013V32.0035L17.4511 30.0006V26.002L13.9595 28.0013Z" fill="#2129DB"/>
<path d="M13.9595 28.0013L17.4511 26.002L13.9595 24.0026L10.4714 26.002L13.9595 28.0013Z" fill="#2F37FF"/>
<path d="M10.4714 30.0006V26.002L13.9595 28.0013V32.0035L10.4714 30.0006Z" fill="#0A1393"/>
<path d="M13.9595 24.0026V28.0013L17.4511 26.002V21.9998L13.9595 24.0026Z" fill="#2129DB"/>
<path d="M13.9595 24.0026L17.4511 21.9998L13.9595 20.0004L10.4714 21.9998L13.9595 24.0026Z" fill="#2F37FF"/>
<path d="M10.4714 26.002V21.9998L13.9595 24.0026V28.0013L10.4714 26.002Z" fill="#0A1393"/>
<path d="M13.9595 20.0004V24.0026L17.4511 21.9998V18.0011L13.9595 20.0004Z" fill="#2129DB"/>
<path d="M13.9595 20.0004L17.4511 18.0011L13.9595 16.0017L10.4714 18.0011L13.9595 20.0004Z" fill="#2F37FF"/>
<path d="M10.4714 21.9998V18.0011L13.9595 20.0004V24.0026L10.4714 21.9998Z" fill="#0A1393"/>
</g>
<defs>
<linearGradient id="paint0_linear_7401_6800" x1="26.6136" y1="10.5784" x2="16.7402" y2="20.2201" gradientUnits="userSpaceOnUse">
<stop stop-color="#00FFBB"/>
<stop offset="1" stop-color="#00C1FF"/>
</linearGradient>
<linearGradient id="paint1_linear_7401_6800" x1="29.9578" y1="14.0059" x2="20.0845" y2="23.6476" gradientUnits="userSpaceOnUse">
<stop stop-color="#00FFBB"/>
<stop offset="1" stop-color="#00C1FF"/>
</linearGradient>
<linearGradient id="paint2_linear_7401_6800" x1="25.9293" y1="9.8783" x2="16.056" y2="19.52" gradientUnits="userSpaceOnUse">
<stop stop-color="#00FFBB"/>
<stop offset="1" stop-color="#00C1FF"/>
</linearGradient>
<linearGradient id="paint3_linear_7401_6800" x1="31.2878" y1="15.3678" x2="21.4145" y2="25.0095" gradientUnits="userSpaceOnUse">
<stop stop-color="#00FFBB"/>
<stop offset="1" stop-color="#00C1FF"/>
</linearGradient>
<linearGradient id="paint4_linear_7401_6800" x1="29.2736" y1="13.3057" x2="19.4002" y2="22.9474" gradientUnits="userSpaceOnUse">
<stop stop-color="#00FFBB"/>
<stop offset="1" stop-color="#00C1FF"/>
</linearGradient>
<linearGradient id="paint5_linear_7401_6800" x1="27.2593" y1="11.2402" x2="17.3859" y2="20.8819" gradientUnits="userSpaceOnUse">
<stop stop-color="#00FFBB"/>
<stop offset="1" stop-color="#00C1FF"/>
</linearGradient>
<linearGradient id="paint6_linear_7401_6800" x1="25.245" y1="9.17819" x2="15.3717" y2="18.8199" gradientUnits="userSpaceOnUse">
<stop stop-color="#00FFBB"/>
<stop offset="1" stop-color="#00C1FF"/>
</linearGradient>
<clipPath id="clip0_7401_6800">
<rect width="27.9225" height="32" fill="white"/>
</clipPath>
</defs>
</svg>
